<?xml version="1.0" encoding="UTF-8"?>
<svg id="Layer_1" xmlns="http://www.w3.org/2000/svg" version="1.1" viewBox="0 0 1116.1 600">
  <!-- Generator: Adobe Illustrator 29.1.0, SVG Export Plug-In . SVG Version: 2.1.0 Build 142)  -->
  <defs>
    <style>
      .st0 {
        fill: #f36f21;
      }

      .st1 {
        fill: #161519;
      }
    </style>
  </defs>
  <path class="st1" d="M86.1,344.3c-43.4-39.8-50.6-106.9-20.9-157.1,51-86.5,180.2-79.8,223.1,10.3,59.3,124.5-97.4,242.8-202.2,146.8h0ZM207.3,187c-70.2-33.5-139.5,50-89.8,110.9,47.4,58.1,139.8,15.2,128.2-57.8-3.1-19.3-20.9-44.7-38.4-53.1h0Z"/>
  <path class="st1" d="M878.1,399l25.4,85.7c.5,1.6,2.7,1.6,3.2,0l25.4-85.8c.2-.7.9-1.2,1.6-1.2,7.7.2,29.3-2.1,31.9,1.6,1.5,2.3,4.4,33.5,4.9,39.4,2,23.9,4.6,48.7,6,72.4,1.6,26.3-5.2,18.2-26.5,19-.9,0-1.7-.7-1.7-1.6l-2.7-78.5c0-1.8-2.5-2.2-3.2-.5-1.3,3.4-2.4,6.1-3.1,8.2-3,9.5-19.5,70.3-22.6,72.4-2.1,1.4-22.9.7-24.4-.3-3.8-2.5-21.9-80.4-25.1-90.9h0c-2.2,3.7-2.8,13.2-3,17.5l-4.3,72.1c0,.8-.7,1.5-1.5,1.5-33.6,2.9-24.1,1.6-23.1-23.3.8-17.6.9-42.7,2.5-60.2.6-7.1,4.5-42.4,6.4-45.9,3.4-6.5,23.7-2.6,32.3-3.1.8,0,1.4.5,1.7,1.2h0v.3Z"/>
  <path class="st1" d="M279.4,399.5c10.1,1.2,20.4,12.6,21.2,23.2,1.6,23.1-12.3,31.6-33.2,33.2-37.6,2.9-107.8,3.4-145,0-3.2-.3-5.3-.3-8.4-1.6-8.1-3.5-27.6-44.1-30.7-54.8h196.2-.1Z"/>
  <path class="st0" d="M549.3,352.5c-24,25.3-66.4,23-87.8-4.4-39-50,5.5-139.1,71.1-107.3,38,18.4,44,82.9,16.6,111.7h.1ZM525.2,336.5c16.4-16.5,15.5-67.6-11.3-74.8-46.5-12.5-50,92.5.5,81.1,2.4-.5,9-4.5,10.8-6.3h0Z"/>
  <path class="st0" d="M121.5,474h133.8c3.8,0,13.8,8.6,16,12.1,12.1,19.8,1.9,45.5-22,48.2-19.9,2.2-72.9,2.4-92.7,0-2.9-.3-5.3-.2-6.7-3.3"/>
  <path class="st0" d="M375,325.1v46.3h-28.2v-136.8h47.3c2,0,14.9,3.4,17.7,4.4,25.1,9.4,30.9,42.5,19.2,64.6-10.4,19.6-36,21.5-56,21.5h0ZM375,302.9c20.9.2,42-8.4,32-33-6.6-16.3-19.1-8.5-32-13.3v46.3h0Z"/>
  <path class="st1" d="M741.1,397.5h74.4c-.4,4.3,1.8,24.1-3,24.1h-43.6l.3,32.2h42.2v20.1h-42.2v32.2h46.3v24.1h-74.4"/>
  <path class="st0" d="M658.4,238.8l.2,25.9c-13.3-5.9-60.2-9.1-43.3,16.2,10.6,16,45.1,21.5,47.5,49.2,4.1,46.6-49.8,41.6-80.6,37.2v-26.1c15.8,9.5,66,3.7,42.3-21.2-14.4-15.2-47-20.2-46.2-50,1-37.8,53.2-39.8,80.1-31.2h0Z"/>
  <path class="st1" d="M622.2,401.7c.8.9,1.1,13.6.2,19.9-11.8-4-45.7-7.8-47.8,11.4-2,18.4,46.2,28.9,51.3,58.5,3.2,18.5-12.8,35.9-30.8,38.6-6.7,1-45.8-.4-49-4.1-1.4-1.7.6-17.9-.2-21.9,16.8,1.6,56.6,10.8,47.8-18.7-3.1-10.4-39.2-21.7-47.5-41-9.8-22.7,9.5-43.5,31.4-46.4,7.4-1,40.4-1,44.5,3.7h0Z"/>
  <path class="st1" d="M1070.6,402c2.1,2,3.5,20.6,2.5,21.7-15.4-1.2-49.3-12.3-48.5,13.2.3,9.4,20.5,17.7,27.3,23,13.2,10.3,23.1,19.1,23.3,37.2.2,16.3-14.3,30.1-29.8,32.7-6.7,1.1-45.8.5-48.5-3.8-1.8-2.9.7-17.1-.3-21.9,12.8,1.7,48.4,9,48.4-11.1s-46.6-29-50.2-54.5c-3.7-26.3,13.3-38.2,37.2-40.9,7.9-.9,33.2-1,38.5,4.3h0Z"/>
  <path class="st1" d="M419.2,425.7c-12.8-6.1-45.6-12.8-46.4,9.1-.4,12.5,20.9,20.8,30.2,28.3,14.8,11.9,25.5,25.1,17.7,45.5-8,20.7-33.6,22.7-52.8,21.8-23.5-1.1-25-1.7-23-26.2,10.2,1,31.3,2.5,40.6,0,1.1-.3,7.5-7.3,7.7-9.1,2.6-22.7-48.5-27.6-50.4-60.3-2-34.3,31.7-39.8,59.2-37,21.9,2.2,19.5,7.6,17.3,27.9h-.1Z"/>
  <path class="st1" d="M479,457.7c1.1,2.4,3.6,2.1,4.5.8,1.7-2.6,18.3-53.8,22.3-60.6,19.6-.8,20.2-.2,28.1-.2-5,14.2-10.2,29-16.3,42.7-5.2,11.6-20.9,36.1-23.5,47.4-1.2,5.1-.8,36.1-.5,42.7h-26.1v-43.2c0-3.8-25.1-52.4-28.9-61.6-3.7-9.1-7.6-18.2-9.3-27.9h30.2"/>
  <path class="st1" d="M635.2,421.6c-1.4-2.2-1.4-24.1,2.3-24.1h87.5c-.4,4.3,1.8,24.1-3,24.1h-29.2l-.4,108.6c-6.1,0-21.2-.5-25.7,0v-108.6"/>
  <path class="st0" d="M259.9,66c51.5-5.6,55,73.1,5.4,74-46,.8-50.5-69.1-5.4-74Z"/>
</svg>