<?xml version="1.0" encoding="UTF-8"?>
<svg id="Layer_1" xmlns="http://www.w3.org/2000/svg" version="1.1" viewBox="0 0 1116.11 600">
  <!-- Generator: Adobe Illustrator 29.1.0, SVG Export Plug-In . SVG Version: 2.1.0 Build 142)  -->
  <defs>
    <style>
      .st0 {
        fill: #f36f21;
      }

      .st1 {
        fill: #ececec;
      }
    </style>
  </defs>
  <path class="st1" d="M86.05,344.34c-43.43-39.78-50.58-106.87-20.93-157.12,51.02-86.49,180.19-79.8,223.1,10.32,59.28,124.5-97.41,242.76-202.16,146.79ZM207.28,186.98c-70.23-33.46-139.52,49.99-89.79,110.88,47.43,58.07,139.76,15.18,128.24-57.82-3.05-19.33-20.85-44.68-38.45-53.06Z"/>
  <path class="st1" d="M878.14,398.98l25.38,85.72c.47,1.58,2.71,1.58,3.17,0l25.41-85.76c.21-.72.87-1.2,1.61-1.18,7.68.17,29.33-2.14,31.87,1.62,1.54,2.28,4.39,33.48,4.89,39.37,2.02,23.89,4.62,48.68,6.03,72.42,1.56,26.32-5.16,18.21-26.47,19.03-.92.04-1.71-.67-1.74-1.59l-2.68-78.47c-.06-1.8-2.55-2.22-3.2-.54-1.32,3.42-2.4,6.1-3.09,8.24-3.05,9.47-19.51,70.34-22.64,72.42-2.07,1.38-22.92.69-24.39-.27-3.84-2.49-21.91-80.41-25.14-90.89h0c-2.17,3.69-2.78,13.21-2.98,17.48l-4.35,72.14c-.05.82-.7,1.48-1.52,1.55-33.62,2.9-24.14,1.64-23.06-23.29.77-17.64.93-42.68,2.49-60.19.64-7.13,4.55-42.42,6.4-45.91,3.42-6.45,23.69-2.64,32.34-3.1.76-.04,1.44.45,1.66,1.18Z"/>
  <path class="st1" d="M279.4,399.5c10.14,1.24,20.43,12.58,21.18,23.19,1.63,23.15-12.31,31.58-33.18,33.21-37.6,2.94-107.79,3.42-145.03.02-3.18-.29-5.35-.28-8.45-1.61-8.14-3.49-27.56-44.11-30.69-54.82h196.16Z"/>
  <path class="st0" d="M549.29,352.52c-23.96,25.28-66.4,23.02-87.76-4.36-38.97-49.97,5.55-139.12,71.12-107.34,38.03,18.43,43.97,82.86,16.64,111.7ZM525.18,336.45c16.37-16.52,15.47-67.65-11.34-74.83-46.48-12.46-50.02,92.55.53,81.12,2.39-.54,9.04-4.51,10.8-6.29Z"/>
  <path class="st0" d="M121.47,473.95h133.79c3.81,0,13.85,8.63,16.02,12.15,12.14,19.8,1.87,45.54-22.04,48.21-19.89,2.22-72.93,2.41-92.67.11-2.9-.34-5.28-.2-6.72-3.34"/>
  <path class="st0" d="M374.97,325.06v46.27h-28.17v-136.81h47.28c2,0,14.88,3.39,17.69,4.44,25.12,9.37,30.85,42.46,19.16,64.6-10.38,19.65-35.95,21.54-55.96,21.5ZM374.97,302.93c20.93.18,41.97-8.35,31.98-33-6.6-16.28-19.06-8.45-31.98-13.28v46.27Z"/>
  <path class="st1" d="M741.13,397.49h74.44c-.4,4.29,1.76,24.14-3.02,24.14h-43.57l.32,32.19h42.25v20.12h-42.25v32.19h46.27v24.14h-74.44"/>
  <path class="st0" d="M658.43,238.76l.21,25.94c-13.34-5.85-60.22-9.14-43.35,16.22,10.61,15.96,45.08,21.53,47.49,49.18,4.06,46.56-49.78,41.56-80.56,37.2v-26.13c15.75,9.49,65.99,3.7,42.34-21.23-14.4-15.18-46.98-20.22-46.19-50,1-37.78,53.22-39.8,80.07-31.16Z"/>
  <path class="st1" d="M622.23,401.71c.79.9,1.09,13.59.23,19.88-11.77-4.02-45.7-7.83-47.81,11.38-2.02,18.35,46.21,28.94,51.31,58.55,3.19,18.51-12.81,35.92-30.82,38.63-6.68,1-45.79-.38-48.96-4.09-1.44-1.69.59-17.86-.2-21.93,16.78,1.6,56.64,10.84,47.85-18.7-3.09-10.37-39.22-21.73-47.54-40.96-9.82-22.69,9.49-43.46,31.39-46.44,7.39-1.01,40.44-1,44.55,3.7Z"/>
  <path class="st1" d="M1070.61,402c2.09,2.05,3.5,20.65,2.49,21.66-15.43-1.21-49.27-12.34-48.48,13.22.29,9.37,20.49,17.69,27.32,23.03,13.15,10.28,23.08,19.09,23.33,37.19.22,16.28-14.31,30.12-29.8,32.71-6.74,1.13-45.84.46-48.54-3.82-1.82-2.88.72-17.12-.26-21.85,12.82,1.72,48.41,8.98,48.38-11.08-.04-20.16-46.58-28.99-50.21-54.49-3.74-26.28,13.3-38.17,37.24-40.86,7.89-.89,33.19-.96,38.54,4.29Z"/>
  <path class="st1" d="M419.21,425.66c-12.77-6.1-45.64-12.84-46.41,9.12-.44,12.53,20.88,20.78,30.17,28.27,14.77,11.9,25.55,25.1,17.66,45.5-8.01,20.71-33.63,22.71-52.79,21.82-23.53-1.1-24.95-1.72-23.04-26.23,10.22,1.05,31.32,2.49,40.57,0,1.12-.3,7.53-7.3,7.74-9.1,2.63-22.71-48.52-27.63-50.43-60.26-2.01-34.26,31.67-39.75,59.19-37.02,21.9,2.17,19.55,7.56,17.34,27.91Z"/>
  <path class="st1" d="M478.99,457.71c1.06,2.35,3.61,2.07,4.45.8,1.72-2.61,18.3-53.75,22.32-60.61,19.56-.76,20.16-.24,28.13-.23-4.96,14.19-10.17,28.95-16.26,42.67-5.16,11.63-20.94,36.11-23.53,47.44-1.17,5.14-.77,36.13-.46,42.65l-26.14.02v-43.26c0-3.75-25.15-52.4-28.91-61.62-3.69-9.07-7.64-18.17-9.32-27.91h30.18"/>
  <path class="st1" d="M635.18,421.64c-1.4-2.24-1.39-24.14,2.34-24.14h87.52c-.4,4.29,1.76,24.14-3.02,24.14h-29.17l-.42,108.64c-6.13,0-21.2-.5-25.73,0v-108.64"/>
  <path class="st0" d="M259.85,66c51.51-5.64,54.98,73.15,5.37,74.04-46.01.82-50.46-69.1-5.37-74.04Z"/>
</svg>